<svg width="59" height="59" viewBox="0 0 59 59" fill="none" xmlns="http://www.w3.org/2000/svg">
<path d="M30.3864 0.00444697C27.5248 0.0929444 25.3122 2.48237 25.4007 5.31429C25.4302 6.02227 25.5777 6.70075 25.8727 7.37923L26.7282 9.26717C26.8462 9.65066 26.6397 10.0637 26.2267 10.1816C25.9612 10.3291 25.6662 10.1816 25.4597 9.94565L24.2206 8.3232C23.2471 7.08424 21.772 6.31726 20.2084 6.28776C17.3468 6.22876 14.9867 8.5002 14.9277 11.3321C14.8982 12.5711 15.3112 13.751 16.0782 14.754L17.3173 16.229H17.3468C17.5828 16.6125 17.4943 17.0844 17.1698 17.3204C16.9043 17.5269 16.5503 17.5269 16.3142 17.3204L14.7507 16.0815C13.7476 15.3145 12.5381 14.9015 11.3285 14.931C8.49639 14.99 6.22479 17.3499 6.28379 20.2114C6.31329 21.7748 7.08033 23.2498 8.31938 24.2232L10.001 25.5212C10.3255 25.8162 10.3255 26.2882 9.97146 26.5537C9.76495 26.7602 9.46993 26.8192 9.20442 26.7012H9.17492L7.37534 25.8752C6.69681 25.6097 6.01828 25.4327 5.31024 25.4032C2.47811 25.3147 0.0885041 27.5566 0 30.4181C0 32.542 1.18005 34.4889 3.12714 35.3149L36.7292 50.271L50.2703 36.7309L35.3131 3.13135C34.4871 1.15491 32.4515 -0.0840504 30.3864 0.00444697ZM32.835 12.0991C34.0741 12.0696 35.1951 12.7776 35.6671 13.8985L44.665 34.0759L33.012 22.4533L30.2684 16.229C29.3833 14.3705 30.7404 12.1581 32.835 12.0991ZM23.1586 20.2114C23.9551 20.2114 24.6926 20.5063 25.2532 21.0963L39.4433 35.2854C40.6234 36.4064 40.6529 38.2648 39.5318 39.4448C38.3518 40.6247 36.5227 40.6542 35.2836 39.4448L21.0935 25.2557C19.9134 24.1347 19.8839 22.2468 21.0345 21.0963C21.595 20.5063 22.362 20.2114 23.1586 20.2114ZM15.1342 30.0051C15.5177 30.0051 15.9307 30.1231 16.2257 30.2706L22.5095 33.0435L34.1331 44.6661L13.8951 35.6689C10.886 34.3709 11.889 29.9166 15.1342 30.0051ZM53.9285 41.4212L41.4199 53.9289L43.9275 56.4363C46.1696 58.6487 49.4148 59.5042 52.4534 58.7077C55.492 57.8817 57.8817 55.4923 58.7077 52.4539C59.5042 49.4155 58.6487 46.1706 56.4361 43.9286L53.9285 41.4212Z" fill="#7A7A7A"/>
</svg>
