<svg width="48" height="54" viewBox="0 0 48 54" fill="none" xmlns="http://www.w3.org/2000/svg">
<path d="M41.3333 32.4C45.0667 32.4 48 35.37 48 39.15C48 42.93 45.0667 45.9 41.3333 45.9C37.6 45.9 34.6667 42.93 34.6667 39.15C34.6667 35.37 37.6 32.4 41.3333 32.4ZM10.6667 35.1C10.6667 35.1 13.3333 37.8 13.3333 40.5V49.95C13.3333 52.11 15.2 54 17.3333 54C19.4667 54 21.3333 52.11 21.3333 49.95V40.5C21.3333 37.8 24 35.1 24 35.1H10.6667ZM13.3333 32.4H21.3333C21.3333 32.4 34.6667 32.4 34.6667 18.9C34.6667 5.4 24 0 17.3333 0C10.6667 0 0 5.4 0 18.9C0 32.4 13.3333 32.4 13.3333 32.4Z" fill="#7A7A7A"/>
</svg>
