<svg width="53" height="53" viewBox="0 0 53 53" fill="none" xmlns="http://www.w3.org/2000/svg">
<path d="M16.3505 2.014C19.5835 0.689 23.0285 0 26.5 0C29.9715 0 33.4165 0.689 36.6495 2.014C39.856 3.339 42.771 5.3 45.2355 7.7645C47.7 10.229 49.661 13.144 50.986 16.3505C52.311 19.5835 53 23.0285 53 26.5C53 33.5225 50.2175 40.28 45.2355 45.2355C40.28 50.2175 33.5225 53 26.5 53C23.0285 53 19.5835 52.311 16.3505 50.986C13.144 49.661 10.229 47.7 7.7645 45.2355C2.7825 40.28 0 33.5225 0 26.5C0 19.4775 2.7825 12.72 7.7645 7.7645C10.229 5.3 13.144 3.339 16.3505 2.014ZM12.9585 42.7975C16.748 45.951 21.518 47.7 26.5 47.7C31.482 47.7 36.252 45.951 40.0415 42.7975C36.5435 38.319 34.45 32.648 34.45 26.5C34.45 20.352 36.5435 14.7075 40.0415 10.2025C36.2785 7.049 31.482 5.3 26.5 5.3C21.518 5.3 16.748 7.049 12.9585 10.2025C16.4565 14.7075 18.55 20.352 18.55 26.5C18.55 32.648 16.4565 38.319 12.9585 42.7975ZM9.275 38.8755C11.766 35.3775 13.25 31.111 13.25 26.5C13.25 21.889 11.766 17.6225 9.275 14.151C6.7045 17.7285 5.3 22.048 5.3 26.5C5.3 30.952 6.7045 35.2715 9.275 38.8755ZM43.725 14.151C41.234 17.6225 39.75 21.889 39.75 26.5C39.75 31.111 41.234 35.3775 43.725 38.8755C46.2955 35.2715 47.7 30.9785 47.7 26.5C47.7 22.048 46.2955 17.7285 43.725 14.151Z" fill="#7A7A7A"/>
</svg>
